<svg  viewBox="0 0 263 50" fill="none" xmlns="http://www.w3.org/2000/svg">
<path d="M167.558 1.82744C167.47 -0.452042 158.063 -0.761332 157.718 1.82739C157.374 4.41612 159.858 6.28094 160.285 7.89958C160.713 9.51822 157.718 40.6887 157.718 42.3086C157.719 43.9284 163.28 50.0006 164.136 50C164.991 49.9994 169.27 43.9284 169.697 42.3086C170.125 40.6887 164.992 9.51944 165.419 7.89958C165.847 6.27972 167.647 4.10693 167.558 1.82744Z" fill="#1B4D7A"/>
<path d="M24.7452 37.537C24.569 37.0095 24.4809 36.7457 24.2714 36.5949C24.062 36.444 23.7839 36.444 23.2277 36.444H13.1943C12.6381 36.444 12.36 36.444 12.1506 36.5949C11.9412 36.7457 11.853 37.0095 11.6768 37.537L10.5318 40.9642C10.3555 41.4917 10.2674 41.7555 10.0579 41.9063C9.8485 42.0571 9.57041 42.0571 9.01422 42.0571H2.29497C1.25166 42.0571 0.729998 42.0571 0.491233 41.7147C0.252468 41.3722 0.432883 40.8827 0.793712 39.9038L12.2978 8.69307C12.4843 8.18697 12.5776 7.93391 12.7838 7.79017C12.9899 7.64643 13.2596 7.64643 13.799 7.64643H22.7202C23.2603 7.64643 23.5303 7.64643 23.7366 7.79046C23.9429 7.93449 24.036 8.18798 24.2222 8.69497L35.6815 39.9057C36.0406 40.8839 36.2202 41.373 35.9814 41.7151C35.7426 42.0571 35.2216 42.0571 34.1795 42.0571H27.4078C26.8516 42.0571 26.5735 42.0571 26.3641 41.9063C26.1546 41.7555 26.0665 41.4917 25.8903 40.9642L24.7452 37.537ZM19.7341 29.1226C20.7502 29.1226 21.2583 29.1226 21.4977 28.7893C21.7371 28.456 21.5748 27.9745 21.2503 27.0116L19.7373 22.5224C19.1059 20.6492 18.7902 19.7126 18.2144 19.7137C17.6386 19.7149 17.3267 20.6528 16.7028 22.5285L15.2097 27.0177C14.8902 27.9783 14.7305 28.4586 14.9699 28.7906C15.2094 29.1226 15.7156 29.1226 16.7279 29.1226H19.7341Z" fill="#1B4D7A"/>
<path d="M81.7067 7.64643C82.461 7.64643 82.8381 7.64643 83.0724 7.88074C83.3067 8.11506 83.3067 8.49218 83.3067 9.24643V13.6607C83.3067 14.415 83.3067 14.7921 83.0724 15.0264C82.8381 15.2607 82.461 15.2607 81.7067 15.2607H75.6285C74.8743 15.2607 74.4971 15.2607 74.2628 15.495C74.0285 15.7293 74.0285 16.1065 74.0285 16.8607V40.4571C74.0285 41.2114 74.0285 41.5885 73.7942 41.8228C73.5599 42.0571 73.1828 42.0571 72.4285 42.0571H65.9554C65.2012 42.0571 64.8241 42.0571 64.5898 41.8228C64.3554 41.5885 64.3554 41.2114 64.3554 40.4571V16.8607C64.3554 16.1065 64.3554 15.7293 64.1211 15.495C63.8868 15.2607 63.5097 15.2607 62.7554 15.2607H56.7759C56.0217 15.2607 55.6445 15.2607 55.4102 15.0264C55.1759 14.7921 55.1759 14.415 55.1759 13.6607V9.24643C55.1759 8.49218 55.1759 8.11506 55.4102 7.88074C55.6445 7.64643 56.0217 7.64643 56.7759 7.64643H81.7067Z" fill="#1B4D7A"/>
<path d="M133.059 7.25595C133.813 7.25595 134.19 7.25595 134.424 7.49026C134.659 7.72458 134.659 8.1017 134.659 8.85595V13.2702C134.659 14.0245 134.659 14.4016 134.424 14.6359C134.19 14.8702 133.813 14.8702 133.059 14.8702H126.981C126.226 14.8702 125.849 14.8702 125.615 15.1046C125.381 15.3389 125.381 15.716 125.381 16.4702V40.0667C125.381 40.8209 125.381 41.198 125.146 41.4324C124.912 41.6667 124.535 41.6667 123.781 41.6667H117.307C116.553 41.6667 116.176 41.6667 115.942 41.4324C115.707 41.198 115.707 40.8209 115.707 40.0667V16.4702C115.707 15.716 115.707 15.3389 115.473 15.1046C115.239 14.8702 114.862 14.8702 114.107 14.8702H108.128C107.374 14.8702 106.997 14.8702 106.762 14.6359C106.528 14.4016 106.528 14.0245 106.528 13.2702V8.85595C106.528 8.1017 106.528 7.72458 106.762 7.49026C106.997 7.25595 107.374 7.25595 108.128 7.25595H133.059Z" fill="#1B4D7A"/>
<path d="M208.154 41.6667C207.69 41.6667 207.459 41.6667 207.27 41.5544C207.081 41.4422 206.97 41.2387 206.748 40.8317L200.478 29.3154C200.365 29.1063 200.145 28.9762 199.907 28.9762V28.9762C199.548 28.9762 199.257 29.2673 199.257 29.6263V40.0667C199.257 40.8209 199.257 41.198 199.023 41.4324C198.789 41.6667 198.411 41.6667 197.657 41.6667H191.184C190.43 41.6667 190.053 41.6667 189.819 41.4324C189.584 41.198 189.584 40.8209 189.584 40.0667V8.85595C189.584 8.1017 189.584 7.72458 189.819 7.49026C190.053 7.25595 190.43 7.25595 191.184 7.25595H204.834C207.631 7.25595 210 7.74405 211.941 8.72024C213.882 9.66389 215.346 10.9817 216.333 12.6738C217.32 14.3333 217.814 16.2044 217.814 18.2869C217.814 20.6298 217.156 22.696 215.84 24.4857C214.905 25.766 213.647 26.7785 212.065 27.5233C211.166 27.9469 210.717 28.1586 210.612 28.4952C210.508 28.8318 210.736 29.2215 211.191 30.0009L216.604 39.2592C217.229 40.3283 217.541 40.8629 217.311 41.2648C217.08 41.6667 216.461 41.6667 215.222 41.6667H208.154ZM199.257 20.8357C199.257 21.59 199.257 21.9671 199.492 22.2014C199.726 22.4357 200.103 22.4357 200.857 22.4357H204.044C205.36 22.4357 206.348 22.1266 207.006 21.5083C207.664 20.8901 207.993 19.9952 207.993 18.8238C207.993 17.7175 207.647 16.8552 206.956 16.2369C206.298 15.5861 205.328 15.2607 204.044 15.2607H200.857C200.103 15.2607 199.726 15.2607 199.492 15.495C199.257 15.7293 199.257 16.1065 199.257 16.8607V20.8357Z" fill="#1B4D7A"/>
<path d="M252.015 14.919C251.261 14.919 250.884 14.919 250.649 15.1534C250.415 15.3877 250.415 15.7648 250.415 16.519V18.9321C250.415 19.6864 250.415 20.0635 250.649 20.2978C250.884 20.5321 251.261 20.5321 252.015 20.5321H259.919C260.674 20.5321 261.051 20.5321 261.285 20.7665C261.519 21.0008 261.519 21.3779 261.519 22.1321V26.2048C261.519 26.959 261.519 27.3361 261.285 27.5704C261.051 27.8048 260.674 27.8048 259.919 27.8048H252.015C251.261 27.8048 250.884 27.8048 250.649 28.0391C250.415 28.2734 250.415 28.6505 250.415 29.4048V32.4036C250.415 33.1578 250.415 33.5349 250.649 33.7693C250.884 34.0036 251.261 34.0036 252.015 34.0036H261.4C262.154 34.0036 262.531 34.0036 262.766 34.2379C263 34.4722 263 34.8493 263 35.6036V40.0667C263 40.8209 263 41.198 262.766 41.4324C262.531 41.6667 262.154 41.6667 261.4 41.6667H242.342C241.588 41.6667 241.211 41.6667 240.976 41.4324C240.742 41.198 240.742 40.8209 240.742 40.0667V8.85595C240.742 8.1017 240.742 7.72458 240.976 7.49026C241.211 7.25595 241.588 7.25595 242.342 7.25595H261.4C262.154 7.25595 262.531 7.25595 262.766 7.49026C263 7.72458 263 8.1017 263 8.85595V13.319C263 14.0733 263 14.4504 262.766 14.6847C262.531 14.919 262.154 14.919 261.4 14.919H252.015Z" fill="#1B4D7A"/>
</svg>
