<svg viewBox="0 0 134 80" fill="none" xmlns="http://www.w3.org/2000/svg">
    <mask id="path-1-outside-1_266_2374" maskUnits="userSpaceOnUse" x="0.132812" y="0.791016" width="134" height="80"
        fill="black">
        <rect fill="white" x="0.132812" y="0.791016" width="134" height="80" />
        <path
            d="M1.13281 1.79102H24.6045V6.39551H5.7373V15.6045H21.8418V20.209H5.7373V29.3955H24.6045V34H1.13281V1.79102Z" />
        <path
            d="M47.874 29.3955C50.0153 29.3955 51.6624 28.819 52.8154 27.666C53.9684 26.513 54.5449 24.8659 54.5449 22.7246V13.0664C54.5449 12.0182 54.3952 11.0824 54.0957 10.2588C53.7962 9.43522 53.3545 8.73893 52.7705 8.16992C52.2015 7.58594 51.5052 7.14421 50.6816 6.84473C49.8581 6.54525 48.9222 6.39551 47.874 6.39551H36.1045V29.3955H47.874ZM31.5 34V1.79102H47.874C49.596 1.79102 51.1458 2.06055 52.5234 2.59961C53.916 3.1237 55.099 3.87988 56.0723 4.86816C57.0605 5.84147 57.8167 7.02441 58.3408 8.41699C58.8799 9.80957 59.1494 11.3594 59.1494 13.0664V22.7246C59.1494 24.4316 58.8799 25.9814 58.3408 27.374C57.8167 28.7666 57.0605 29.957 56.0723 30.9453C55.099 31.9186 53.916 32.6748 52.5234 33.2139C51.1458 33.738 49.596 34 47.874 34H31.5Z" />
        <path
            d="M66.5391 1.79102H90.0107V6.39551H71.1436V15.6045H87.248V20.209H71.1436V29.3955H90.0107V34H66.5391V1.79102Z" />
        <path d="M101.511 34H96.9062V1.79102H101.511L120.872 26.7676V1.79102H125.477V34H120.872L101.511 9.02344V34Z" />
        <path
            d="M1.13281 79V46.791H18.7646C23.9756 46.791 26.5811 49.404 26.5811 54.6299V59.2119C26.5811 64.4378 23.9756 67.0508 18.7646 67.0508H5.7373V79H1.13281ZM5.7373 62.4463H18.5176C19.7454 62.4463 20.6289 62.1768 21.168 61.6377C21.707 61.0986 21.9766 60.2152 21.9766 58.9873V54.8545C21.9766 53.6266 21.707 52.7432 21.168 52.2041C20.6289 51.665 19.7454 51.3955 18.5176 51.3955H5.7373V62.4463Z" />
        <path
            d="M47.2649 46.791L59.6858 79H55.0813L52.2288 71.5879H37.6965L34.844 79H30.2395L42.6604 46.791H47.2649ZM39.4485 66.9834H50.4543L44.9739 52.7881L39.4485 66.9834Z" />
        <path
            d="M93.4194 58.291C93.4194 62.7832 91.5027 65.3438 87.6694 65.9727L93.7339 79H88.6352L82.6606 66.1299H72.5757V79H67.9712V46.791H85.603C90.8139 46.791 93.4194 49.404 93.4194 54.6299V58.291ZM72.5757 61.5254H85.3559C86.5838 61.5254 87.4673 61.2559 88.0063 60.7168C88.5454 60.1777 88.8149 59.2943 88.8149 58.0664V54.8545C88.8149 53.6266 88.5454 52.7432 88.0063 52.2041C87.4673 51.665 86.5838 51.3955 85.3559 51.3955H72.5757V61.5254Z" />
        <path
            d="M108.488 46.791V60.6943L123.851 46.791H130.342L112.913 62.5811L131.039 79H124.548L108.488 64.5127V79H103.884V46.791H108.488Z" />
    </mask>
    <path d="M1.13281 1.79102H24.6045V6.39551H5.7373V15.6045H21.8418V20.209H5.7373V29.3955H24.6045V34H1.13281V1.79102Z"
        fill="#1B4D7A" />
    <path
        d="M47.874 29.3955C50.0153 29.3955 51.6624 28.819 52.8154 27.666C53.9684 26.513 54.5449 24.8659 54.5449 22.7246V13.0664C54.5449 12.0182 54.3952 11.0824 54.0957 10.2588C53.7962 9.43522 53.3545 8.73893 52.7705 8.16992C52.2015 7.58594 51.5052 7.14421 50.6816 6.84473C49.8581 6.54525 48.9222 6.39551 47.874 6.39551H36.1045V29.3955H47.874ZM31.5 34V1.79102H47.874C49.596 1.79102 51.1458 2.06055 52.5234 2.59961C53.916 3.1237 55.099 3.87988 56.0723 4.86816C57.0605 5.84147 57.8167 7.02441 58.3408 8.41699C58.8799 9.80957 59.1494 11.3594 59.1494 13.0664V22.7246C59.1494 24.4316 58.8799 25.9814 58.3408 27.374C57.8167 28.7666 57.0605 29.957 56.0723 30.9453C55.099 31.9186 53.916 32.6748 52.5234 33.2139C51.1458 33.738 49.596 34 47.874 34H31.5Z"
        fill="#1B4D7A" />
    <path d="M66.5391 1.79102H90.0107V6.39551H71.1436V15.6045H87.248V20.209H71.1436V29.3955H90.0107V34H66.5391V1.79102Z"
        fill="#1B4D7A" />
    <path d="M101.511 34H96.9062V1.79102H101.511L120.872 26.7676V1.79102H125.477V34H120.872L101.511 9.02344V34Z"
        fill="#1B4D7A" />
    <path
        d="M1.13281 79V46.791H18.7646C23.9756 46.791 26.5811 49.404 26.5811 54.6299V59.2119C26.5811 64.4378 23.9756 67.0508 18.7646 67.0508H5.7373V79H1.13281ZM5.7373 62.4463H18.5176C19.7454 62.4463 20.6289 62.1768 21.168 61.6377C21.707 61.0986 21.9766 60.2152 21.9766 58.9873V54.8545C21.9766 53.6266 21.707 52.7432 21.168 52.2041C20.6289 51.665 19.7454 51.3955 18.5176 51.3955H5.7373V62.4463Z"
        fill="#1B4D7A" />
    <path
        d="M47.2649 46.791L59.6858 79H55.0813L52.2288 71.5879H37.6965L34.844 79H30.2395L42.6604 46.791H47.2649ZM39.4485 66.9834H50.4543L44.9739 52.7881L39.4485 66.9834Z"
        fill="#1B4D7A" />
    <path
        d="M93.4194 58.291C93.4194 62.7832 91.5027 65.3438 87.6694 65.9727L93.7339 79H88.6352L82.6606 66.1299H72.5757V79H67.9712V46.791H85.603C90.8139 46.791 93.4194 49.404 93.4194 54.6299V58.291ZM72.5757 61.5254H85.3559C86.5838 61.5254 87.4673 61.2559 88.0063 60.7168C88.5454 60.1777 88.8149 59.2943 88.8149 58.0664V54.8545C88.8149 53.6266 88.5454 52.7432 88.0063 52.2041C87.4673 51.665 86.5838 51.3955 85.3559 51.3955H72.5757V61.5254Z"
        fill="#1B4D7A" />
    <path
        d="M108.488 46.791V60.6943L123.851 46.791H130.342L112.913 62.5811L131.039 79H124.548L108.488 64.5127V79H103.884V46.791H108.488Z"
        fill="#1B4D7A" />
    <path d="M1.13281 1.79102H24.6045V6.39551H5.7373V15.6045H21.8418V20.209H5.7373V29.3955H24.6045V34H1.13281V1.79102Z"
        stroke="#1B4D7A" stroke-width="2" mask="url(#path-1-outside-1_266_2374)" />
    <path
        d="M47.874 29.3955C50.0153 29.3955 51.6624 28.819 52.8154 27.666C53.9684 26.513 54.5449 24.8659 54.5449 22.7246V13.0664C54.5449 12.0182 54.3952 11.0824 54.0957 10.2588C53.7962 9.43522 53.3545 8.73893 52.7705 8.16992C52.2015 7.58594 51.5052 7.14421 50.6816 6.84473C49.8581 6.54525 48.9222 6.39551 47.874 6.39551H36.1045V29.3955H47.874ZM31.5 34V1.79102H47.874C49.596 1.79102 51.1458 2.06055 52.5234 2.59961C53.916 3.1237 55.099 3.87988 56.0723 4.86816C57.0605 5.84147 57.8167 7.02441 58.3408 8.41699C58.8799 9.80957 59.1494 11.3594 59.1494 13.0664V22.7246C59.1494 24.4316 58.8799 25.9814 58.3408 27.374C57.8167 28.7666 57.0605 29.957 56.0723 30.9453C55.099 31.9186 53.916 32.6748 52.5234 33.2139C51.1458 33.738 49.596 34 47.874 34H31.5Z"
        stroke="#1B4D7A" stroke-width="2" mask="url(#path-1-outside-1_266_2374)" />
    <path d="M66.5391 1.79102H90.0107V6.39551H71.1436V15.6045H87.248V20.209H71.1436V29.3955H90.0107V34H66.5391V1.79102Z"
        stroke="#1B4D7A" stroke-width="2" mask="url(#path-1-outside-1_266_2374)" />
    <path d="M101.511 34H96.9062V1.79102H101.511L120.872 26.7676V1.79102H125.477V34H120.872L101.511 9.02344V34Z"
        stroke="#1B4D7A" stroke-width="2" mask="url(#path-1-outside-1_266_2374)" />
    <path
        d="M1.13281 79V46.791H18.7646C23.9756 46.791 26.5811 49.404 26.5811 54.6299V59.2119C26.5811 64.4378 23.9756 67.0508 18.7646 67.0508H5.7373V79H1.13281ZM5.7373 62.4463H18.5176C19.7454 62.4463 20.6289 62.1768 21.168 61.6377C21.707 61.0986 21.9766 60.2152 21.9766 58.9873V54.8545C21.9766 53.6266 21.707 52.7432 21.168 52.2041C20.6289 51.665 19.7454 51.3955 18.5176 51.3955H5.7373V62.4463Z"
        stroke="#1B4D7A" stroke-width="2" mask="url(#path-1-outside-1_266_2374)" />
    <path
        d="M47.2649 46.791L59.6858 79H55.0813L52.2288 71.5879H37.6965L34.844 79H30.2395L42.6604 46.791H47.2649ZM39.4485 66.9834H50.4543L44.9739 52.7881L39.4485 66.9834Z"
        stroke="#1B4D7A" stroke-width="2" mask="url(#path-1-outside-1_266_2374)" />
    <path
        d="M93.4194 58.291C93.4194 62.7832 91.5027 65.3438 87.6694 65.9727L93.7339 79H88.6352L82.6606 66.1299H72.5757V79H67.9712V46.791H85.603C90.8139 46.791 93.4194 49.404 93.4194 54.6299V58.291ZM72.5757 61.5254H85.3559C86.5838 61.5254 87.4673 61.2559 88.0063 60.7168C88.5454 60.1777 88.8149 59.2943 88.8149 58.0664V54.8545C88.8149 53.6266 88.5454 52.7432 88.0063 52.2041C87.4673 51.665 86.5838 51.3955 85.3559 51.3955H72.5757V61.5254Z"
        stroke="#1B4D7A" stroke-width="2" mask="url(#path-1-outside-1_266_2374)" />
    <path
        d="M108.488 46.791V60.6943L123.851 46.791H130.342L112.913 62.5811L131.039 79H124.548L108.488 64.5127V79H103.884V46.791H108.488Z"
        stroke="#1B4D7A" stroke-width="2" mask="url(#path-1-outside-1_266_2374)" />
</svg>