<svg viewBox="0 0 113 85" fill="none" xmlns="http://www.w3.org/2000/svg">
    <path
        d="M55.2361 0.0476608C50.9604 0.418495 47.1362 2.86492 44.8094 6.72274C43.5036 8.88136 42.6985 11.6267 42.6985 13.9181V14.4882H44.6376H46.5766V14.1118C46.5815 13.2871 46.827 11.9089 47.1362 11.0012C47.9855 8.52158 49.6497 6.51795 51.8538 5.30028C54.917 3.61213 58.6429 3.78925 61.5442 5.75414C64.3767 7.66921 66.0654 10.9348 66.0654 14.4882C66.0654 16.4752 65.5548 18.3405 64.5485 20.0342C62.9776 22.6854 60.2138 24.4898 57.2782 24.7831C56.969 24.8108 56.1884 24.8385 55.5503 24.8385H54.3819V27.3513V29.8586L54.1168 29.8974C53.9745 29.914 53.6603 30.0191 53.4198 30.1298C53.1792 30.2405 52.6981 30.4619 52.3447 30.6224C51.9962 30.7829 51.52 30.9988 51.2893 31.1095C51.0585 31.2147 50.4645 31.4859 49.9638 31.7183C49.4631 31.9453 47.5535 32.8253 45.7175 33.6666C43.8816 34.5135 42.0947 35.3326 41.7413 35.4931C41.3927 35.6536 40.9165 35.8695 40.6858 35.9802C40.4551 36.0854 39.7924 36.3898 39.2131 36.6555C38.0251 37.1979 37.9122 37.2477 35.1141 38.5373C32.7381 39.6332 32.6203 39.6831 31.2851 40.2974C28.7913 41.4432 28.0451 41.7863 27.2842 42.135C26.8375 42.3398 25.9441 42.7494 25.2961 43.0483C21.4278 44.825 20.6276 45.1903 20.1171 45.4283C19.8078 45.5722 18.3695 46.2308 16.9263 46.895C15.483 47.5537 13.6912 48.3784 12.95 48.7215C12.2087 49.0647 10.8293 49.6957 9.88184 50.1329C7.08862 51.417 6.77935 51.5609 6.30809 51.8266C4.51139 52.845 2.99942 54.3063 1.87526 56.1106C0.868915 57.7213 0.220927 59.7249 0.0343846 61.795C-0.0343414 62.5366 0.00493056 64.1916 0.10802 64.9388C0.495831 67.6786 1.57581 70.1416 3.25469 72.1009C5.03666 74.1821 7.3488 75.4938 10.0537 75.9588C10.4415 76.0252 10.9176 76.0584 11.5754 76.0584C12.5278 76.0639 12.5327 76.0639 12.8174 75.909C14.3294 75.0732 14.2263 72.5991 12.6554 71.9515C12.464 71.874 12.194 71.8297 11.7473 71.8076C10.2206 71.7135 8.9884 71.3703 7.91333 70.7228C5.89082 69.5106 4.45249 67.352 3.95668 64.7838C3.80941 64.02 3.79959 62.3208 3.93213 61.5625C4.22176 59.9574 4.81575 58.6567 5.78282 57.5276C6.73517 56.4095 7.69243 55.7619 9.80821 54.8044C10.3875 54.5443 11.0404 54.2454 11.2564 54.1457C11.4724 54.0461 11.9534 53.8247 12.3265 53.6531C13.112 53.2878 14.0938 52.8395 14.9872 52.4299C15.3406 52.2694 16.5875 51.6993 17.7608 51.1569C18.934 50.6145 20.1417 50.0665 20.4362 49.9282C20.7356 49.7898 21.2756 49.5407 21.6389 49.3747C22.0022 49.2086 23.8479 48.3618 25.7379 47.4928C29.0662 45.9652 31.0298 45.063 32.0951 44.5704C33.6758 43.8453 36.7586 42.4284 37.5441 42.0686C38.0448 41.8361 38.8744 41.4598 39.3849 41.2218C39.9004 40.9893 42.3402 39.8657 44.8094 38.7311C47.2786 37.6019 49.7233 36.4784 50.2338 36.2403C50.7493 36.0023 52.0698 35.3935 53.1743 34.8843C54.2788 34.3751 55.2655 33.8991 55.3686 33.8271C55.5454 33.6998 55.5994 33.6943 56.3013 33.6943C56.9935 33.6943 57.0524 33.7054 57.2439 33.8271C57.4893 33.9876 58.0244 34.2367 63.7827 36.8769C66.2126 37.9894 68.5984 39.0853 69.0844 39.3122C69.5704 39.5391 71.9562 40.6351 74.3861 41.7476C76.8161 42.8601 78.9024 43.8176 79.0251 43.8785C79.2706 44.0003 80.4585 44.5427 81.8232 45.1681C82.324 45.3951 83.993 46.1589 85.5295 46.8674C87.071 47.5758 88.6173 48.2843 88.9658 48.4448C89.3193 48.6053 90.036 48.9374 90.5613 49.1809C91.0865 49.4245 93.1876 50.3875 95.2248 51.3229C98.4795 52.8174 99.368 53.2214 100.527 53.7583C101.013 53.9797 102.647 54.7324 103.447 55.0977C104.999 55.8062 105.848 56.3984 106.717 57.3781C107.782 58.5847 108.386 59.8633 108.685 61.5514C108.828 62.3651 108.837 63.782 108.705 64.579C108.175 67.7062 106.231 70.2468 103.595 71.2652C102.721 71.6028 102.112 71.7135 100.374 71.8519C100.006 71.8796 99.5791 72.1176 99.2747 72.4607C98.342 73.5123 98.6317 75.278 99.8393 75.92C100.075 76.0473 100.183 76.0639 100.743 76.0805C102.593 76.1414 104.866 75.5326 106.516 74.5308C106.879 74.3094 106.943 74.2651 107.522 73.85C108.297 73.2854 109.422 72.1397 110.06 71.2486C110.796 70.2191 111.567 68.6693 111.96 67.424C112.2 66.6546 112.426 65.6307 112.539 64.7727C112.657 63.8595 112.657 62.0772 112.534 61.2027C112.171 58.5681 111.204 56.404 109.515 54.4391C108.278 53 106.849 51.9982 104.527 50.9466C103.55 50.4982 103.079 50.2824 100.551 49.1201C99.9571 48.8488 99.2404 48.5168 98.9557 48.3894C98.6709 48.2621 96.8301 47.4153 94.8566 46.5076C91.2829 44.8637 89.442 44.0169 88.2295 43.4634C87.881 43.3029 87.3361 43.0538 87.0268 42.9099C86.7175 42.766 85.4559 42.1904 84.2287 41.6258C83.0014 41.0612 81.3863 40.3196 80.6451 39.9764C79.9038 39.6332 78.7748 39.1185 78.1415 38.8251C77.5082 38.5373 75.8392 37.768 74.4352 37.1259C73.0312 36.4784 71.4653 35.7588 70.9498 35.5208C68.9518 34.6076 67.9504 34.1482 64.1999 32.4213C58.4908 29.7922 58.8 29.9306 58.5006 29.8918L58.26 29.8586V29.3494V28.8402L58.6184 28.7738C60.6016 28.4085 62.5309 27.5616 64.1607 26.3384C65.0345 25.6798 65.5303 25.2204 66.2372 24.4233C68.2793 22.1208 69.4918 19.3921 69.8747 16.2372C69.9729 15.4291 69.9729 13.5639 69.8698 12.7281C69.5066 9.61749 68.2744 6.84451 66.2372 4.55306C65.545 3.76711 65.0443 3.30771 64.1754 2.65459C61.5933 0.706306 58.3877 -0.229088 55.2361 0.0476608Z"
        fill="#1B4D7A" />
    <path
        d="M38.0099 47.6642C37.5534 47.8247 37.2 48.2066 37.0232 48.7269L36.9398 48.9704H35.6782C34.4558 48.9704 34.4117 48.9759 34.2006 49.0977C34.068 49.1752 33.9208 49.3302 33.8275 49.4907C33.6851 49.7231 33.6655 49.8062 33.6655 50.1106C33.6655 50.6253 33.7833 50.8799 34.1318 51.0903L34.3282 51.212L38.9181 51.2397L43.508 51.2674V51.4058C43.508 51.688 43.6749 51.6825 37.6614 51.6825C31.643 51.6825 31.9179 51.6714 31.589 51.9592C31.2257 52.2803 31.1177 53.0109 31.373 53.4426C31.4466 53.5699 31.5988 53.7304 31.7166 53.7968L31.9228 53.9241L36.8563 53.9518L41.7899 53.9795L41.8046 54.0957C41.839 54.3725 41.9568 54.3669 37.4012 54.3946C33.5624 54.4223 33.1353 54.4333 33.0028 54.5164C32.3793 54.9038 32.2468 55.8503 32.7426 56.3706C33.0273 56.675 32.8457 56.6639 38.5745 56.6639C41.4855 56.6639 43.9008 56.6805 43.9449 56.6971C43.9891 56.7137 44.0235 56.7746 44.0235 56.83C44.0235 57.0901 44.264 57.079 37.4552 57.0901C33.4249 57.1012 30.9852 57.1288 30.8723 57.162C30.6121 57.2395 30.3028 57.5606 30.2046 57.8539C30.0181 58.4019 30.2046 58.983 30.6514 59.2376C30.8379 59.3428 30.9655 59.3483 35.5064 59.376L40.1699 59.4037V59.5421C40.1699 59.8022 40.0619 59.8188 38.2161 59.8188C36.3458 59.8188 36.2918 59.8299 36.1494 60.1398C36.0758 60.3059 35.7273 64.5788 35.7273 65.326C35.7273 65.9791 35.9776 66.4275 36.4882 66.6931C36.7238 66.8149 36.7925 66.8204 38.1229 66.837C39.4041 66.8537 39.5268 66.8481 39.6986 66.754L39.8852 66.6489L39.9196 67.0917C39.9637 67.7005 40.0275 67.9606 40.2485 68.4864C40.5823 69.2779 41.1959 69.9089 41.9961 70.2687C42.3102 70.4071 42.3741 70.4181 43.1153 70.4181C43.8811 70.4181 43.9106 70.4126 44.3229 70.2355C45.1575 69.8757 45.9233 69.1506 46.3258 68.3315C46.532 67.9108 46.8216 67.0031 46.8216 66.7651C46.8216 66.6101 46.8952 66.5382 46.9541 66.6433C46.9738 66.6876 47.0425 66.7485 47.1014 66.7872C47.18 66.8315 49.4381 66.8481 55.7953 66.8481H64.3811L64.5627 66.7097C64.6609 66.6323 64.7542 66.5714 64.764 66.5714C64.7787 66.5714 64.7885 66.7208 64.7885 66.909C64.7885 67.3905 64.9162 67.9717 65.142 68.503C65.5151 69.3776 66.3202 70.1192 67.1694 70.3628C67.6063 70.4901 68.4605 70.4735 68.9121 70.3296C70.3897 69.8757 71.4206 68.5529 71.6857 66.7817L71.7152 66.5769L71.8968 66.7153C72.0637 66.8481 72.1128 66.8592 72.5202 66.837C72.8737 66.8149 73.0111 66.7817 73.2124 66.671C73.5855 66.4496 73.9046 66.0179 74.0273 65.5529C74.0862 65.3205 74.4544 60.7044 74.4936 59.7081C74.5231 58.828 74.474 58.4794 74.2384 57.9148C74.0911 57.5661 73.9586 57.3668 73.4088 56.6916C73.1829 56.4148 72.8835 56.044 72.7411 55.8613C72.0686 55.009 70.9592 53.6585 70.5812 53.2323C70.2866 52.8946 70.0608 52.6954 69.8154 52.5515C69.2116 52.1972 69.0741 52.1806 66.8798 52.1806H64.9211L64.9555 51.7489C65.1665 49.1807 65.1715 48.9206 65.0291 48.5055C64.9162 48.1568 64.5971 47.797 64.3026 47.6863C64.0424 47.5811 38.2996 47.559 38.0099 47.6642ZM64.0964 48.6106C64.1749 48.6549 64.2486 48.7324 64.2682 48.7767C64.3222 48.9372 64.3026 49.4575 64.1897 51.0238C64.1013 52.3024 64.0915 52.5791 64.1455 52.7231C64.278 53.0773 64.2436 53.0718 66.4331 53.0662C68.5538 53.0607 68.9072 53.0939 69.3294 53.3208C69.6926 53.509 69.8546 53.6695 70.4388 54.3946C70.7186 54.7433 70.9837 55.0699 71.023 55.1141C71.0623 55.1639 71.2979 55.4518 71.5384 55.7506C71.7839 56.0551 72.1373 56.4868 72.3239 56.7193C73.3989 58.0255 73.5757 58.3244 73.6788 58.972C73.718 59.2376 73.7033 59.6583 73.5806 61.1804C73.4971 62.2099 73.394 63.5161 73.3548 64.0807C73.2664 65.2485 73.2566 65.3149 73.124 65.564C73.016 65.7577 72.8982 65.8463 72.6577 65.9072L72.5006 65.9515L72.4711 65.636C72.2944 63.7264 71.1752 62.2209 69.5699 61.7505C69.0447 61.601 68.1856 61.601 67.6063 61.756C66.7767 61.9774 65.9471 62.5032 65.3531 63.1729C64.7787 63.8261 64.4056 64.5622 64.1897 65.4589L64.0866 65.9072H55.8542H47.6218L47.5923 65.4755C47.4696 63.732 46.2669 62.1767 44.7107 61.756C44.1462 61.6066 43.3166 61.6066 42.752 61.756C41.6082 62.066 40.5283 62.9017 39.9392 63.9312C39.6692 64.4072 39.3452 65.2762 39.2863 65.6692L39.2519 65.9072H38.1032C36.768 65.9072 36.6502 65.8795 36.5667 65.5419C36.5274 65.3869 36.5569 64.8113 36.6845 63.1176C36.7778 61.8999 36.8563 60.8538 36.8563 60.804C36.8563 60.7099 36.9594 60.7044 38.4812 60.7044C40.3221 60.7044 40.4055 60.6933 40.7148 60.3391C41.1615 59.8409 41.0977 59.0218 40.5774 58.6233L40.3663 58.4627L35.7076 58.4461C32.6542 58.4351 31.0244 58.4129 30.9852 58.3742C30.9115 58.3022 30.9508 58.1251 31.0539 58.0642C31.103 58.0421 34.0533 58.0089 37.6221 57.9923L44.1069 57.9646L44.3426 57.7986C44.8924 57.4166 45.0004 56.4868 44.5438 56.044C44.2247 55.7285 44.6322 55.7506 38.7512 55.734C35.1922 55.723 33.3317 55.7008 33.2924 55.6621C33.2286 55.6012 33.2531 55.413 33.3415 55.3466C33.3709 55.3245 35.3198 55.2968 37.6712 55.2802L41.9421 55.2525L42.1482 55.1031C42.3986 54.9149 42.6097 54.5164 42.6342 54.1787C42.6686 53.8079 42.4526 53.3651 42.1581 53.1769L41.9372 53.0385H37.0527C34.3675 53.0385 32.1388 53.0164 32.1093 52.9943C32.0112 52.9223 32.0357 52.7507 32.1535 52.6566C32.2517 52.5791 32.88 52.5681 37.8872 52.5681C43.4197 52.5681 43.5129 52.5625 43.724 52.4518C44.48 52.0699 44.5684 50.9297 43.8811 50.4759L43.6553 50.3264L39.0654 50.2988L34.4755 50.2711L34.4607 50.1493C34.4509 50.0774 34.4853 49.9999 34.5589 49.9445C34.6522 49.867 34.8584 49.856 35.9874 49.856C37.0674 49.856 37.3276 49.8394 37.4454 49.773C37.6074 49.6789 37.7105 49.4907 37.7596 49.1973C37.7989 48.9427 37.9069 48.7656 38.0983 48.6383C38.2554 48.5276 38.4567 48.5276 51.1072 48.5276C62.2899 48.5276 63.9786 48.5387 64.0964 48.6106ZM44.1266 63.6932C44.7156 63.8205 45.3784 64.3297 45.6631 64.8777C46.0018 65.5253 46.0951 66.4441 45.8987 67.0806C45.8447 67.2522 45.8104 67.4071 45.8251 67.4237C45.8398 67.4348 45.7809 67.5953 45.6974 67.7724C45.3636 68.4698 44.6862 69.134 44.0235 69.4052C43.7535 69.5104 43.6111 69.5325 43.0908 69.5325C42.487 69.5325 42.4722 69.5325 42.0991 69.3277C41.6672 69.0953 41.353 68.7909 41.0977 68.3536C40.9063 68.0326 40.7148 67.4514 40.7835 67.4016C40.8081 67.385 40.8032 67.2466 40.7786 67.0972C40.5872 66.0068 41.3039 64.5788 42.3299 64.0087C42.9435 63.6711 43.5326 63.5659 44.1266 63.6932ZM69.133 63.7209C69.5552 63.8482 69.8252 64.0142 70.1492 64.3463C70.4732 64.684 70.6843 65.0714 70.8021 65.5419C70.915 65.9681 70.8806 66.6987 70.7383 67.1083C70.6744 67.2743 70.6548 67.4016 70.6843 67.4127C70.7923 67.4514 70.4044 68.1544 70.0461 68.5695C69.457 69.2392 68.7943 69.5602 68.0039 69.5602C67.2872 69.5602 66.6932 69.2779 66.2416 68.7244C65.8047 68.1986 65.628 67.6285 65.6231 66.7928C65.6182 65.398 66.7031 63.9866 68.0039 63.6932C68.3328 63.6213 68.8237 63.6323 69.133 63.7209Z"
        fill="#1B4D7A" />
    <path
        d="M53.9153 48.8818C51.8142 49.225 49.8801 50.6309 48.7118 52.6677C47.1311 55.4296 47.136 58.983 48.7216 61.7726C49.7966 63.6655 51.4706 64.9718 53.4539 65.4754C53.9006 65.5861 54.0871 65.6028 54.9953 65.5972C56.1538 65.5972 56.6447 65.5087 57.4891 65.1655C59.1532 64.4847 60.6652 63.0733 61.4703 61.435C62.1722 60.007 62.4521 58.7948 62.4521 57.1897C62.4471 56.3927 62.4275 56.1436 62.3195 55.5458C61.9955 53.7968 61.2788 52.3467 60.1252 51.1124C59.1287 50.0386 57.7001 49.2139 56.3698 48.9372C55.7856 48.8209 54.4847 48.7877 53.9153 48.8818ZM56.4974 49.9279C58.7801 50.5368 60.5768 52.3854 61.2984 54.8761C61.6519 56.0827 61.7353 57.4609 61.5292 58.6398C61.0383 61.3962 59.2072 63.6655 56.8705 64.4072C56.0704 64.6618 55.712 64.7061 54.7646 64.6784C53.8417 64.6452 53.2919 64.529 52.5457 64.1969C51.0926 63.5438 49.8261 62.2375 49.1094 60.6546C48.7756 59.9184 48.6185 59.4147 48.4859 58.6952C47.9509 55.7174 49.0456 52.7341 51.3135 50.9962C52.0352 50.4427 52.9875 50.0109 53.9153 49.8283C54.5437 49.701 55.8396 49.7563 56.4974 49.9279Z"
        fill="#1B4D7A" />
    <path
        d="M54.1213 50.6862C52.7419 50.9353 51.3674 51.7987 50.5378 52.9389C50.1254 53.5145 49.8456 54.0071 49.6247 54.5827C48.5791 57.2782 49.2614 60.4663 51.279 62.3316C52.3394 63.3057 53.5617 63.8039 54.9313 63.8039C56.2469 63.8094 57.1993 63.4939 58.2596 62.708C59.5851 61.7172 60.5521 60.0069 60.7878 58.2302C61.0725 56.1048 60.4392 53.985 59.0696 52.485C58.3627 51.7101 57.3956 51.0958 56.4433 50.8246C56.0211 50.7028 55.7904 50.6751 55.167 50.6585C54.7497 50.6474 54.2784 50.6585 54.1213 50.6862ZM56.4384 52.9555C57.1404 53.2599 57.916 53.996 58.3971 54.8097C58.6769 55.2801 58.9174 55.9941 59.0205 56.6362C59.1236 57.3004 59.1187 57.5661 59.0009 57.6823C58.7898 57.8982 58.6082 57.6657 58.6033 57.1897C58.5934 55.806 57.7491 54.3005 56.6004 53.6307C56.3893 53.509 56.1291 53.3761 56.0162 53.3374C55.7315 53.2433 55.6235 53.1105 55.6971 52.9278C55.7757 52.7396 55.9573 52.7452 56.4384 52.9555ZM54.6761 57.959C55.059 58.1195 55.1964 58.3299 55.3928 59.0162C55.5744 59.6749 55.6677 59.8354 55.9819 60.0568C56.2617 60.2505 56.728 60.3446 57.9405 60.4608C58.51 60.5106 58.9911 60.577 59.0156 60.5992C59.1187 60.7043 58.4462 61.5567 57.9651 61.922C57.0373 62.6305 55.8199 62.9792 54.6319 62.8685C54.0477 62.8131 53.3064 62.625 52.8941 62.4257C52.3099 62.1434 51.5736 61.4294 51.0925 60.6767C50.8078 60.2339 50.4543 59.5531 50.4543 59.4535C50.4543 59.4202 50.5279 59.3704 50.6163 59.3317C50.7832 59.2653 50.8323 59.2265 51.4901 58.6675C52.2952 57.9756 52.737 57.8151 53.7679 57.8483C54.2588 57.8594 54.519 57.8926 54.6761 57.959Z"
        fill="#1B4D7A" />
    <path
        d="M65.4611 53.8633C65.417 53.9132 65.3826 54.1235 65.363 54.4334C65.3433 54.6991 65.2795 55.5404 65.2206 56.2932C65.1519 57.1843 65.1322 57.6824 65.1617 57.7156C65.1961 57.7544 66.4871 57.7654 68.7305 57.7599L72.2503 57.7433L70.8218 55.9832C70.0363 55.0146 69.3098 54.1512 69.2018 54.0626C68.8974 53.8191 68.652 53.7859 67.0222 53.7859C65.7999 53.7859 65.52 53.8025 65.4611 53.8633Z"
        fill="#1B4D7A" />
    <path
        d="M43.2142 64.2579C42.5417 64.3575 41.8053 64.9664 41.4813 65.6914C40.848 67.1194 41.5206 68.7135 42.8755 68.9626C44.0193 69.1784 45.2171 68.1987 45.4478 66.8593C45.5656 66.1896 45.4036 65.4534 45.0354 64.983C44.5691 64.3852 43.9604 64.1417 43.2142 64.2579ZM43.7345 65.47C44.6182 65.8077 44.6378 67.1582 43.764 67.6508C43.2878 67.9165 42.7724 67.7781 42.4778 67.3021C42.1538 66.7707 42.3747 65.9128 42.9196 65.5918C43.2338 65.4036 43.4695 65.3704 43.7345 65.47Z"
        fill="#1B4D7A" />
    <path
        d="M68.078 64.2579C67.43 64.363 66.6888 64.9829 66.3697 65.6914C65.6137 67.3906 66.7526 69.2503 68.3824 68.9625C69.3544 68.7965 70.1496 67.9386 70.3362 66.8593C70.562 65.5807 69.8011 64.3741 68.7015 64.2523C68.5051 64.2357 68.2253 64.2357 68.078 64.2579ZM68.888 65.6139C69.6734 66.2283 69.2464 67.684 68.2547 67.7781C67.4791 67.85 66.9686 66.9589 67.322 66.1619C67.6313 65.4756 68.3775 65.2154 68.888 65.6139Z"
        fill="#1B4D7A" />
    <path
        d="M20.4165 71.193C19.8225 71.3812 19.3463 71.8074 19.1009 72.372C18.9831 72.6376 18.9683 72.7483 18.9683 73.1856C18.9634 74.2372 19.3021 74.6468 20.9368 75.5601C21.9285 76.1191 22.1543 76.2851 22.2574 76.573C22.4537 77.0932 22.2525 77.6467 21.7616 77.9345C21.467 78.1061 20.8681 78.1283 20.4901 77.9788C20.0483 77.8017 19.5525 77.3146 19.2531 76.7667C19.2383 76.739 18.4971 77.3644 18.4971 77.4032C18.4971 77.4973 18.9585 78.1449 19.1647 78.3386C19.7734 78.9142 20.3232 79.1467 21.0743 79.1467C22.0806 79.1522 22.8366 78.6928 23.1999 77.8626C23.3177 77.5858 23.3324 77.4973 23.3324 76.9493C23.3324 76.3958 23.3226 76.3128 23.1999 76.0582C22.9348 75.4881 22.493 75.1228 21.2707 74.4586C20.7994 74.1985 20.3429 73.9107 20.2496 73.8055C19.8127 73.3461 19.955 72.5602 20.5196 72.3C20.7749 72.1838 21.3345 72.1672 21.6143 72.2723C21.899 72.3775 22.2034 72.6321 22.3899 72.9089C22.4734 73.0417 22.5617 73.1524 22.5814 73.1579C22.6354 73.1579 23.303 72.5823 23.3079 72.5325C23.3079 72.5048 23.2294 72.372 23.1312 72.2281C22.8906 71.8683 22.3457 71.4255 21.9776 71.2761C21.5652 71.1156 20.7945 71.0768 20.4165 71.193Z"
        fill="#1B4D7A" />
    <path
        d="M44.1221 75.0674V79.0249H44.6375H45.153L45.1628 76.3294L45.1775 73.6339L45.5948 74.204C45.8255 74.5139 46.3557 75.239 46.7729 75.8091C47.1902 76.3792 47.9216 77.3699 48.3929 78.0175L49.252 79.1854L49.4631 79.1909H49.6692V75.2611C49.6692 73.097 49.6742 71.3148 49.684 71.2871C49.6889 71.265 49.468 71.2428 49.1931 71.2318L48.6874 71.2151L48.6776 73.9438L48.6629 76.6725L47.9462 75.7039C47.5535 75.1726 46.7484 74.0767 46.1593 73.2686C45.5702 72.4605 44.9762 71.6469 44.8388 71.4587C44.5982 71.1321 44.5786 71.1155 44.3577 71.1155L44.1221 71.11V75.0674Z"
        fill="#1B4D7A" />
    <path
        d="M58.5345 73.4458C57.4349 76.5453 57.3711 76.728 57.322 76.6339C57.3024 76.5896 57.0913 75.9586 56.8606 75.228C56.6249 74.5029 56.242 73.3074 56.0064 72.5768L55.5842 71.2484L55.0246 71.2318C54.5877 71.2208 54.4748 71.2318 54.4895 71.2872C54.4993 71.3259 55.0933 73.1248 55.81 75.2778L57.106 79.1965L57.322 79.1799L57.538 79.1633L58.0927 77.5859C58.402 76.7169 58.8536 75.4328 59.104 74.7243C59.3543 74.0159 59.5752 73.4569 59.5949 73.479C59.6145 73.5011 60.0809 74.7908 60.6307 76.3405L61.6272 79.1633H61.8432H62.0641L62.609 77.5305C62.9085 76.6339 63.4828 74.8904 63.8903 73.6561C64.2977 72.4218 64.6511 71.3702 64.6659 71.3148C64.7002 71.2263 64.661 71.2208 64.1455 71.2318L63.5859 71.2484L62.9379 73.2687C62.5795 74.3812 62.1819 75.6099 62.0592 75.9974C61.9316 76.3848 61.8137 76.6837 61.7941 76.6616C61.7745 76.6394 61.3818 75.5601 60.9203 74.2649C60.4589 72.9698 60.022 71.7355 59.9434 71.5252L59.806 71.1377L59.5851 71.1211L59.3642 71.1045L58.5345 73.4458Z"
        fill="#1B4D7A" />
    <path
        d="M70.69 71.896C70.528 72.3332 70.0027 73.7225 69.5265 74.9844C69.0455 76.2464 68.5153 77.6523 68.3435 78.1116C68.1717 78.5655 68.0293 78.9585 68.0293 78.9806C68.0293 79.0028 68.2649 79.0249 68.5595 79.0249H69.0847L69.3498 78.3054C69.4971 77.9069 69.6394 77.5637 69.6738 77.5305C69.7033 77.5028 70.3414 77.4862 71.2447 77.4917L72.7616 77.5028L73.0512 78.2611L73.3408 79.0249H73.8808C74.2932 79.0249 74.4159 79.0083 74.3963 78.9529C74.3717 78.881 73.6697 77.0102 72.4621 73.8221C72.0203 72.6487 71.608 71.5583 71.549 71.4034C71.4411 71.11 71.4411 71.11 71.2152 71.11H70.9894L70.69 71.896ZM71.8043 74.8571C72.1038 75.6818 72.3492 76.3848 72.3492 76.4124C72.3492 76.4678 70.1696 76.5065 70.096 76.4512C70.0469 76.418 70.0567 76.3903 70.7292 74.525C70.9796 73.8332 71.2054 73.2852 71.2251 73.3074C71.2447 73.3295 71.5098 74.0269 71.8043 74.8571Z"
        fill="#1B4D7A" />
    <path
        d="M80.4147 71.193C79.536 71.4642 78.9911 72.1561 78.9371 73.0749C78.9027 73.6505 79.0107 74.0103 79.3298 74.4033C79.6783 74.8295 79.9925 75.0619 80.9989 75.6154C81.9954 76.1634 82.2408 76.3792 82.2899 76.7722C82.393 77.525 81.8678 78.084 81.0578 78.084C80.4491 78.084 79.8845 77.7353 79.4427 77.0877L79.2169 76.7556L79.0009 76.9272C78.8831 77.0213 78.7162 77.1707 78.6278 77.2538L78.4658 77.4032L78.5836 77.6191C78.8585 78.1172 79.4329 78.6707 79.9189 78.9087C80.3754 79.1246 80.886 79.2021 81.4358 79.1356C82.5256 78.9973 83.2766 78.1892 83.3356 77.0932C83.3945 75.9475 82.9821 75.4217 81.3032 74.4863C80.2478 73.8996 80.0416 73.7225 79.9778 73.3516C79.9042 72.9088 80.1152 72.4771 80.4932 72.3111C81.1461 72.0122 81.9169 72.2502 82.3439 72.8812C82.447 73.0306 82.5452 73.1579 82.5648 73.1579C82.5845 73.1579 82.7563 73.0195 82.9477 72.848L83.2963 72.5435L83.2128 72.372C82.9625 71.8849 82.1476 71.2816 81.583 71.1653C81.2198 71.0879 80.7191 71.1045 80.4147 71.193Z"
        fill="#1B4D7A" />
    <path
        d="M28.3643 75.1228V79.0249H28.8552H29.3461L29.3559 77.4585L29.3706 75.8977L30.426 75.8645C31.5453 75.8313 31.668 75.8091 32.1049 75.5158C32.7725 75.073 33.1211 74.2926 33.0622 73.3793C33.0131 72.5712 32.6498 71.9181 32.0509 71.5584C31.5649 71.265 31.2557 71.2207 29.729 71.2207H28.3643V75.1228ZM31.2557 72.3609C31.8791 72.5657 32.1884 73.2742 31.9724 73.9992C31.9282 74.1376 31.8251 74.3313 31.7416 74.4254C31.4422 74.7741 31.3784 74.7907 30.318 74.8073L29.3461 74.8295V73.5841C29.3461 72.9033 29.3608 72.3277 29.3804 72.3111C29.3951 72.289 29.7682 72.2724 30.2051 72.2724C30.7795 72.2724 31.0691 72.2945 31.2557 72.3609Z"
        fill="#1B4D7A" />
    <path d="M37.8389 75.1228V79.0249H38.3543H38.8698V75.1228V71.2207H38.3543H37.8389V75.1228Z" fill="#1B4D7A" />
    <path
        d="M88.3477 71.2484C88.3428 71.265 88.3428 71.3259 88.3428 71.3868C88.3428 71.4477 88.3428 73.1911 88.3477 75.2612L88.3526 79.0249H88.8435H89.3344L89.3442 77.2095L89.3589 75.3996L91.1164 75.383L92.8689 75.3664V77.1984V79.0249H93.3843H93.8998V75.1228V71.2207H93.3843H92.8689V72.7982V74.3811L91.1164 74.3645L89.3589 74.3479L89.3442 72.7816L89.3344 71.2207H88.8435C88.5735 71.2207 88.3526 71.2318 88.3477 71.2484Z"
        fill="#1B4D7A" />
    <path
        d="M21.4916 81.8423C21.1136 81.9751 20.7504 82.3625 20.6522 82.7389C20.6227 82.8496 20.6031 83.1264 20.6129 83.3588C20.6325 83.7186 20.6571 83.8127 20.7798 84.0175C20.8633 84.1448 21.0253 84.3274 21.1382 84.4215C21.3198 84.5599 21.4033 84.5876 21.7174 84.6042C22.1985 84.6319 22.4538 84.5267 22.7189 84.1891C23.1901 83.5802 23.1558 82.7112 22.6354 82.1578C22.3409 81.8478 21.8647 81.715 21.4916 81.8423ZM22.3458 82.2795C22.768 82.6061 22.8858 83.2371 22.6305 83.7906C22.3311 84.4437 21.5456 84.5433 21.1136 83.9898C20.9467 83.7739 20.8534 83.4861 20.8534 83.1762C20.8534 82.9105 21.0547 82.4456 21.2314 82.3017C21.5653 82.036 22.0169 82.0249 22.3458 82.2795Z"
        fill="#1B4D7A" />
    <path
        d="M31.7518 81.8643C31.6585 81.8975 31.467 82.0524 31.3247 82.2074C31.1283 82.4233 31.0547 82.5506 30.9909 82.8052C30.8092 83.5192 31.1136 84.2719 31.6928 84.5431C31.9579 84.6704 32.4292 84.6483 32.6894 84.5044C32.9397 84.3605 33.1263 84.1833 33.1263 84.0837C33.1263 84.0505 33.0919 83.9896 33.0526 83.9509C32.9888 83.89 32.9495 83.9066 32.817 84.045C32.5961 84.283 32.4783 84.3383 32.1936 84.3383C31.8745 84.3383 31.6683 84.2387 31.4719 83.9896C30.9663 83.342 31.251 82.3015 31.9825 82.1189C32.2034 82.0635 32.2721 82.0635 32.4734 82.1521C32.601 82.2074 32.7679 82.3236 32.8366 82.4122C32.9643 82.5616 32.9692 82.5616 33.0772 82.4675L33.1852 82.3679L32.9643 82.1465C32.6256 81.8089 32.1887 81.7093 31.7518 81.8643Z"
        fill="#1B4D7A" />
    <path
        d="M37.029 81.8589C36.1945 82.1965 35.9147 83.4031 36.4989 84.1669C36.7443 84.4935 36.9947 84.6152 37.4169 84.6152C37.9519 84.6152 38.3594 84.3219 38.5656 83.7905C38.6637 83.5249 38.6588 82.9326 38.5557 82.6503C38.3152 82.0083 37.5936 81.6319 37.029 81.8589ZM37.9519 82.2684C38.1679 82.4289 38.379 82.8717 38.379 83.1762C38.379 83.6632 38.1041 84.1558 37.7556 84.2887C37.5003 84.3828 37.0929 84.3274 36.8867 84.1669C36.3958 83.7905 36.3271 82.8883 36.7541 82.4068C37.0732 82.047 37.5739 81.9917 37.9519 82.2684Z"
        fill="#1B4D7A" />
    <path
        d="M47.9116 81.8865C47.6662 82.0248 47.5582 82.2075 47.5582 82.5119C47.5582 82.8717 47.6613 82.999 48.1964 83.3089C48.4369 83.4528 48.6578 83.6133 48.6873 83.6742C48.7707 83.8513 48.7412 84.0617 48.6136 84.2C48.3829 84.4657 47.8773 84.3495 47.6416 83.9842C47.5876 83.9012 47.568 83.9012 47.4845 83.9676C47.3962 84.0451 47.3962 84.0561 47.4747 84.1945C47.8085 84.7701 48.7511 84.7701 48.9622 84.1945C49.1389 83.7185 48.9867 83.4252 48.3731 83.0599C47.8625 82.7554 47.7545 82.6115 47.8478 82.3569C47.9313 82.13 48.162 82.0414 48.4418 82.1245C48.5498 82.1577 48.6676 82.2352 48.702 82.2905C48.7707 82.4233 48.8492 82.4289 48.9327 82.3182C49.0162 82.2075 48.8885 82.0359 48.6136 81.8975C48.3731 81.7702 48.1227 81.7647 47.9116 81.8865Z"
        fill="#1B4D7A" />
    <path
        d="M76.8652 83.2038V84.6152H77.0125H77.1598L77.1696 83.5857L77.1843 82.5507L77.9158 83.5857C78.3183 84.1503 78.6767 84.6152 78.7159 84.6152C78.765 84.6152 78.7797 84.344 78.7797 83.2315V81.8478H78.6325H78.4852V82.8773V83.9068L78.279 83.6245C78.1612 83.4751 77.8274 82.9991 77.5279 82.5729C77.2334 82.1467 76.9585 81.798 76.9291 81.798C76.88 81.7924 76.8652 82.1079 76.8652 83.2038Z"
        fill="#1B4D7A" />
    <path
        d="M81.9262 81.9142C81.9016 81.9862 81.6709 82.6116 81.4107 83.309C81.1505 84.0064 80.9395 84.5876 80.9395 84.5931C80.9395 84.6042 81.0033 84.6152 81.0818 84.6152C81.2094 84.6152 81.2389 84.582 81.3224 84.3219L81.4205 84.0341H81.9998H82.584L82.7018 84.3219C82.8049 84.5765 82.8392 84.6152 82.962 84.6152H83.0994L83.0061 84.3496C82.4809 82.8883 82.0734 81.8201 82.0243 81.8035C81.9949 81.7924 81.9507 81.8423 81.9262 81.9142ZM82.2551 83.0544C82.368 83.381 82.4612 83.6798 82.4612 83.7186C82.4612 83.7905 81.5973 83.8182 81.5629 83.7407C81.5384 83.6909 81.9703 82.4566 82.0145 82.4566C82.0293 82.4566 82.1372 82.7278 82.2551 83.0544Z"
        fill="#1B4D7A" />
    <path
        d="M85.6081 81.8921C85.3627 82.0305 85.2498 82.2353 85.2498 82.5176C85.2547 82.8497 85.3725 82.9991 85.8781 83.3035C86.3592 83.5913 86.4377 83.6743 86.4377 83.9068C86.4377 84.3274 85.883 84.499 85.5443 84.1891C85.456 84.1005 85.3578 84.0009 85.3283 83.9511C85.2792 83.8847 85.2596 83.8847 85.1909 83.9455C85.078 84.0507 85.0927 84.1337 85.2498 84.2887C85.505 84.5544 85.6474 84.6208 85.9469 84.6208C86.4476 84.6263 86.7814 84.261 86.7127 83.7906C86.6685 83.4917 86.5457 83.3478 86.0745 83.0655C85.5885 82.7666 85.4805 82.6393 85.5296 82.4069C85.5934 82.0637 86.1039 81.9752 86.3494 82.263C86.4819 82.4235 86.5507 82.4345 86.6341 82.3183C86.7176 82.2076 86.5899 82.036 86.315 81.8977C86.0647 81.7704 85.8241 81.7648 85.6081 81.8921Z"
        fill="#1B4D7A" />
    <path
        d="M91.6416 83.2038V84.6152H91.7643H91.8871L91.8969 83.5802L91.9116 82.5397L92.2307 82.988C92.4074 83.2315 92.7363 83.6964 92.967 84.023C93.1978 84.344 93.4137 84.6097 93.4481 84.6152C93.4923 84.6152 93.507 84.3053 93.507 83.2315V81.8478H93.3843H93.2616V82.8441C93.2616 83.392 93.2419 83.8404 93.2174 83.8404C93.183 83.8404 92.378 82.7555 91.8625 82.0083C91.784 81.8921 91.7005 81.798 91.6809 81.7924C91.6563 81.7924 91.6416 82.429 91.6416 83.2038Z"
        fill="#1B4D7A" />
    <path
        d="M18.0603 81.9696C18.0898 82.0416 18.2763 82.3958 18.4678 82.7611L18.8163 83.4253L18.8261 84.0065C18.836 84.5876 18.836 84.5876 18.9587 84.6042L19.0863 84.6208V84.0452V83.464L19.479 82.7002C19.695 82.2796 19.8718 81.9143 19.8718 81.8866C19.8718 81.8589 19.8129 81.8478 19.7392 81.8589C19.6214 81.8755 19.5576 81.9696 19.2876 82.501C19.1109 82.8386 18.9538 83.1043 18.9341 83.0821C18.9145 83.0545 18.7672 82.7777 18.6052 82.4567C18.3402 81.9253 18.3009 81.8755 18.1585 81.8589C18.0063 81.8423 18.0014 81.8478 18.0603 81.9696Z"
        fill="#1B4D7A" />
    <path
        d="M23.9854 82.8551C24.0002 83.7684 24.01 83.8902 24.1082 84.1171C24.2603 84.4658 24.5058 84.6152 24.9329 84.6152C25.2176 84.6152 25.2814 84.5931 25.463 84.4437C25.8116 84.1614 25.8607 83.9732 25.8607 82.8275V81.8478H25.7379C25.6447 81.8478 25.6152 81.8755 25.6152 81.9695C25.6005 83.3976 25.5809 83.8293 25.517 83.9676C25.3649 84.3219 24.8691 84.4492 24.5451 84.2278C24.28 84.0451 24.2407 83.857 24.2407 82.7887V81.8478H24.1082H23.9707L23.9854 82.8551Z"
        fill="#1B4D7A" />
    <path
        d="M26.9404 83.2315V84.6152H27.0632H27.1859V84.0341V83.4529H27.4706L27.7504 83.4584L28.1186 84.0341C28.4328 84.5267 28.5064 84.6152 28.6242 84.6152C28.6979 84.6152 28.7568 84.6042 28.7568 84.582C28.7568 84.5544 28.6144 84.3163 28.2168 83.6798L28.0646 83.4418L28.261 83.2481C28.4868 83.0322 28.5702 82.7776 28.5113 82.4843C28.4082 81.9751 28.1971 81.8478 27.4559 81.8478H26.9404V83.2315ZM28.0842 82.2352C28.1579 82.3016 28.2266 82.4289 28.2413 82.5286C28.3149 82.9658 28.0499 83.1928 27.5148 83.1651L27.2104 83.1485L27.1957 82.7112C27.1859 82.4677 27.1908 82.2408 27.2055 82.1965C27.2252 82.1467 27.3381 82.1245 27.5933 82.1245C27.8879 82.1245 27.9811 82.1467 28.0842 82.2352Z"
        fill="#1B4D7A" />
    <path
        d="M34.1074 83.2315V84.6152H34.8192H35.531V84.4769V84.3385H34.9665H34.402V83.0931V81.8478H34.2547H34.1074V83.2315Z"
        fill="#1B4D7A" />
    <path
        d="M39.2617 81.9862C39.2617 82.1245 39.2666 82.1245 39.679 82.1245H40.0962V83.3699V84.6152H40.2435H40.3908V83.3699V82.1245H40.808C41.2204 82.1245 41.2253 82.1245 41.2253 81.9862V81.8478H40.2435H39.2617V81.9862Z"
        fill="#1B4D7A" />
    <path
        d="M42.0605 83.2315V84.6152H42.2078H42.3551V83.9234V83.2315H43.0178H43.6805V83.9234V84.6152H43.8278H43.9751V83.2315V81.8478H43.8278H43.6805V82.4289V83.0101H43.0178H42.3551V82.4289V81.8478H42.2078H42.0605V83.2315Z"
        fill="#1B4D7A" />
    <path
        d="M45.1035 83.2315V84.6152H45.8644H46.6253V84.4769V84.3385H45.9871H45.3441L45.3588 83.7961L45.3735 83.2592L45.8546 83.2426C46.2866 83.2315 46.3308 83.2204 46.3308 83.1208C46.3308 83.0212 46.2866 83.0101 45.8546 82.999L45.3735 82.9824L45.3588 82.5507L45.3441 82.1245H45.9626H46.5762V81.9862V81.8478H45.8399H45.1035V83.2315Z"
        fill="#1B4D7A" />
    <path
        d="M51.4854 83.226V84.6152H51.8781C52.3984 84.6152 52.7175 84.5322 52.9924 84.3219C53.3213 84.0673 53.4637 83.7241 53.4637 83.2094C53.4588 82.7611 53.3606 82.4788 53.1201 82.2297C52.8451 81.9419 52.6782 81.881 52.0646 81.8589L51.4854 81.8367V83.226ZM52.6635 82.2463C52.963 82.4234 53.1495 82.7057 53.1839 83.0433C53.2722 83.8514 52.7617 84.3938 51.9664 84.3274L51.7553 84.3108L51.7406 83.2924C51.7308 82.7334 51.7357 82.2408 51.7504 82.202C51.7946 82.0692 52.4082 82.1024 52.6635 82.2463Z"
        fill="#1B4D7A" />
    <path
        d="M54.4307 83.2315V84.6152H55.2161H56.0015V84.4769V84.344L55.3536 84.3274L54.7007 84.3108V83.785V83.2592L55.1817 83.2426C55.6137 83.2315 55.6579 83.2204 55.6579 83.1208C55.6579 83.0212 55.6137 83.0101 55.1817 82.999L54.7007 82.9824V82.5673V82.1522L55.329 82.1356L55.9525 82.119V81.9862V81.8478H55.1916H54.4307V83.2315Z"
        fill="#1B4D7A" />
    <path
        d="M56.9346 83.2315V84.6152H57.6218H58.3091V84.4769C58.3091 84.344 58.3091 84.344 57.7593 84.3274L57.2046 84.3108L57.1898 83.0765L57.18 81.8478H57.0573H56.9346V83.2315Z"
        fill="#1B4D7A" />
    <path
        d="M59.1934 83.2371V84.6208L59.3161 84.6042C59.3848 84.5932 59.4388 84.571 59.4388 84.5434C59.4388 84.5212 59.4388 83.9068 59.4388 83.1762V81.8479H59.3161H59.1934V83.2371Z"
        fill="#1B4D7A" />
    <path
        d="M60.3854 81.9141C60.3952 81.9528 60.626 82.5783 60.8911 83.3033C61.2298 84.2166 61.3967 84.6151 61.4458 84.604C61.485 84.593 61.6323 84.2609 61.7796 83.8679C61.9269 83.4694 62.1527 82.855 62.2852 82.4952L62.5208 81.8477H62.3687H62.2116L61.8434 82.8993C61.6421 83.4749 61.4654 83.9509 61.4507 83.9509C61.431 83.9509 61.323 83.6852 61.2052 83.3531C60.6505 81.8089 60.6701 81.8477 60.5082 81.8477C60.41 81.8477 60.3658 81.8698 60.3854 81.9141Z"
        fill="#1B4D7A" />
    <path
        d="M63.4141 83.2315V84.6152H64.1995H64.9849V84.4769V84.344L64.337 84.3274L63.6841 84.3108V83.785V83.2592L64.1651 83.2426C64.5971 83.2315 64.6413 83.2204 64.6413 83.1208C64.6413 83.0212 64.5971 83.0101 64.1651 82.999L63.6841 82.9824V82.5673V82.1522L64.3124 82.1356L64.9358 82.119V81.9862V81.8478H64.175H63.4141V83.2315Z"
        fill="#1B4D7A" />
    <path
        d="M65.918 83.2315V84.6152H66.0407H66.1634V84.0341V83.4529L66.4481 83.4584H66.728L67.0863 84.0396C67.4054 84.5488 67.4643 84.6152 67.5919 84.6152C67.6705 84.6152 67.7343 84.6042 67.7343 84.5931C67.7343 84.5765 67.5821 84.3219 67.3907 84.0175C67.2041 83.7186 67.047 83.4474 67.047 83.4197C67.047 83.392 67.0961 83.3422 67.155 83.3145C67.4594 83.1596 67.587 82.5673 67.3907 82.2075C67.2336 81.9197 67.0372 81.8478 66.4383 81.8478H65.918V83.2315ZM67.0716 82.2352C67.1845 82.3625 67.2336 82.6282 67.1845 82.833C67.1256 83.071 66.9145 83.1762 66.4825 83.1762H66.1634V82.6448V82.1135L66.5807 82.1301C66.8703 82.1467 67.0176 82.1799 67.0716 82.2352Z"
        fill="#1B4D7A" />
    <path
        d="M68.6128 81.8699C68.603 81.881 68.5981 82.5064 68.6079 83.2536L68.6226 84.6152H69.3786H70.1395V84.4769V84.3385H69.5013H68.8583L68.873 83.7961L68.8877 83.2592L69.3688 83.2426C69.8008 83.2315 69.845 83.2204 69.845 83.1208C69.845 83.0212 69.8008 83.0101 69.3688 82.999L68.8877 82.9824L68.873 82.5507L68.8583 82.1245H69.5013H70.1395V81.9862V81.8478H69.3884C68.9712 81.8478 68.6226 81.8588 68.6128 81.8699Z"
        fill="#1B4D7A" />
    <path
        d="M71.0723 83.237V84.6318L71.627 84.6042C72.0442 84.5876 72.2308 84.5543 72.3977 84.4658C73.3697 83.9676 73.3009 82.3293 72.2946 81.9308C72.167 81.8755 71.9019 81.8478 71.5828 81.8478H71.0723V83.237ZM72.2161 82.202C72.4517 82.3016 72.5793 82.4289 72.6971 82.6891C72.8002 82.9216 72.8199 83.4086 72.7364 83.6577C72.599 84.0728 72.167 84.3385 71.627 84.3385H71.3668V83.2315V82.1245H71.7006C71.8822 82.1301 72.113 82.1633 72.2161 82.202Z"
        fill="#1B4D7A" />
    <path d="M75.4902 83.2315V84.6152H75.6375H75.7848V83.2315V81.8478H75.6375H75.4902V83.2315Z" fill="#1B4D7A" />
    <path
        d="M87.7139 83.2315V84.6152H87.8611H88.0084V84.0396V83.464L88.4159 83.4474C88.7595 83.4308 88.8577 83.4031 89.0246 83.2758C89.4811 82.9382 89.3927 82.1245 88.8773 81.9087C88.7988 81.8755 88.5091 81.8478 88.2244 81.8478H87.7139V83.2315ZM88.8969 82.285C89.0786 82.4954 89.0884 82.7721 88.9215 82.9935C88.8135 83.1319 88.7693 83.1485 88.406 83.1651L88.0084 83.1872V82.6559V82.1245H88.3815C88.7251 82.1245 88.7644 82.1356 88.8969 82.285Z"
        fill="#1B4D7A" />
    <path d="M90.2666 83.2315V84.6152H90.3893H90.5121V83.2315V81.8478H90.3893H90.2666V83.2315Z" fill="#1B4D7A" />
</svg>